<svg width="24" height="24" viewBox="0 0 24 24" fill="none" xmlns="http://www.w3.org/2000/svg">
  <path d="M18 8C18 6.4087 17.3679 4.88258 16.2426 3.75736C15.1174 2.63214 13.5913 2 12 2C10.4087 2 8.88258 2.63214 7.75736 3.75736C6.63214 4.88258 6 6.4087 6 8C6 15 3 17 3 17H21C21 17 18 15 18 8Z" stroke="currentColor" stroke-width="2" stroke-linecap="round" stroke-linejoin="round"/>
  <path d="M13.73 21C13.5239 21.3571 13.2269 21.6521 12.8689 21.8546C12.5109 22.0571 12.1032 22.1632 11.6882 22.1623C11.2733 22.1613 10.8661 22.0535 10.509 21.8494C10.1519 21.6453 9.85601 21.3516 9.65 21" stroke="currentColor" stroke-width="2" stroke-linecap="round" stroke-linejoin="round"/>
</svg>
